<?xml version="1.0" encoding="UTF-8" standalone="no"?>
<!-- Created with Inkscape (http://www.inkscape.org/) -->

<svg
   width="140.33427mm"
   height="140.3513mm"
   viewBox="0 0 140.33427 140.3513"
   version="1.1"
   id="svg1"
   xml:space="preserve"
   xmlns:inkscape="http://www.inkscape.org/namespaces/inkscape"
   xmlns:sodipodi="http://sodipodi.sourceforge.net/DTD/sodipodi-0.dtd"
   xmlns="http://www.w3.org/2000/svg"
   xmlns:svg="http://www.w3.org/2000/svg"><sodipodi:namedview
     id="namedview1"
     pagecolor="#ffffff"
     bordercolor="#000000"
     borderopacity="0.25"
     inkscape:showpageshadow="2"
     inkscape:pageopacity="0.0"
     inkscape:pagecheckerboard="0"
     inkscape:deskcolor="#d1d1d1"
     inkscape:document-units="mm" /><defs
     id="defs1" /><g
     inkscape:label="Layer 1"
     inkscape:groupmode="layer"
     id="layer1"
     transform="translate(-247.38508,-108.24961)"><path
       style="fill:#00d8e0;fill-opacity:1;stroke:#000000;stroke-width:5;stroke-dasharray:none;stroke-opacity:1"
       d="m 311.37657,110.94169 c -11.36196,1.14767 -21.61016,4.75806 -31.08854,10.95236 -7.62543,4.98337 -15.36977,12.94359 -20.23476,20.79884 -13.56156,21.89714 -13.56156,49.51926 0,71.4164 2.71403,4.38221 5.3992,7.69997 9.76602,12.06679 5.93662,5.93662 10.6763,9.37523 17.87707,12.96969 15.37495,7.67483 33.90891,9.07066 50.39784,3.79557 10.47605,-3.35148 19.17413,-8.63787 27.08363,-16.46049 10.80206,-10.68341 17.27405,-23.59314 19.5275,-38.95164 0.6461,-4.40356 0.6461,-13.85268 0,-18.25624 -2.25345,-15.3585 -8.72544,-28.26823 -19.5275,-38.95164 -10.49758,-10.38229 -23.06584,-16.68961 -37.64372,-18.89134 -3.99397,-0.60322 -12.48067,-0.8597 -16.15754,-0.4883 z"
       id="path1"
       sodipodi:nodetypes="sssssssssssss"
       inkscape:export-filename="back.svg"
       inkscape:export-xdpi="96"
       inkscape:export-ydpi="96" /><path
       d="m 300.57563,142.02415 c 0.76431,0.34711 1.74208,1.12607 2.17284,1.731 0.84309,1.18401 1.25525,3.73423 0.8594,5.31745 -0.15261,0.6104 -2.76834,3.49996 -7.30738,8.07234 -3.88831,3.91689 -7.23261,7.55016 -7.43175,8.07392 -0.92557,2.43447 0.17353,5.19685 2.51961,6.33255 1.3744,0.66535 2.09307,0.67809 38.25835,0.67809 40.29632,0 38.20476,-0.10485 39.97865,2.00333 1.97675,2.34925 1.97675,5.17095 0,7.52021 -1.77389,2.10814 0.31767,2.00334 -39.97865,2.00334 -36.16528,0 -36.88395,0.0128 -38.25835,0.67807 -2.34608,1.13571 -3.44518,3.89809 -2.51961,6.33255 0.19914,0.52377 3.54344,4.15702 7.43175,8.07393 4.53904,4.57237 7.15477,7.46192 7.30738,8.07232 0.39069,1.56258 -0.0163,4.13341 -0.83674,5.28562 -1.5013,2.1084 -4.53987,2.96044 -6.90152,1.93525 -0.6217,-0.26986 -8.11498,-7.52473 -17.42081,-16.86652 -17.9857,-18.05517 -14.09811,-24.3967 0,-38.54888 8.98142,-9.01587 16.78754,-16.59982 17.34693,-16.85324 1.41593,-0.64147 3.14438,-0.58409 4.7799,0.15867 z"
       style="fill:#ffffff;fill-opacity:1;stroke:#000000;stroke-width:6.60784;stroke-dasharray:none;stroke-opacity:1"
       id="path1-9"
       sodipodi:nodetypes="ssssssssssssssssssss" /></g></svg>
