<?xml version="1.0" encoding="UTF-8" standalone="no"?>
<!-- Created with Inkscape (http://www.inkscape.org/) -->

<svg
   width="85.473854mm"
   height="85.46138mm"
   viewBox="0 0 85.473854 85.46138"
   version="1.1"
   id="svg1"
   xml:space="preserve"
   xmlns:inkscape="http://www.inkscape.org/namespaces/inkscape"
   xmlns:sodipodi="http://sodipodi.sourceforge.net/DTD/sodipodi-0.dtd"
   xmlns="http://www.w3.org/2000/svg"
   xmlns:svg="http://www.w3.org/2000/svg"><sodipodi:namedview
     id="namedview1"
     pagecolor="#ffffff"
     bordercolor="#000000"
     borderopacity="0.25"
     inkscape:showpageshadow="2"
     inkscape:pageopacity="0.0"
     inkscape:pagecheckerboard="0"
     inkscape:deskcolor="#d1d1d1"
     inkscape:document-units="mm" /><defs
     id="defs1" /><g
     inkscape:label="Layer 1"
     inkscape:groupmode="layer"
     id="layer1"
     transform="translate(-251.52524,0.14592053)"><circle
       style="fill:#ffffff;fill-opacity:1;stroke:none;stroke-width:2.33122;stroke-linecap:round;stroke-linejoin:bevel;stroke-miterlimit:4.1;stroke-dasharray:27.9747, 34.9683;stroke-opacity:1"
       id="path2"
       cx="189.12067"
       cy="237.28075"
       r="26.045473"
       transform="rotate(-45)" /><path
       style="fill:#000000;stroke:#552ce8;stroke-opacity:1"
       d="m 256.93061,84.522278 c -2.12531,-0.79444 -4.16819,-2.97263 -4.72494,-5.0379 -0.39517,-1.46591 -0.10543,-3.60418 0.73327,-5.41149 0.58004,-1.24992 2.25341,-3.06565 10.27612,-11.15034 5.27078,-5.31151 9.65159,-9.85496 9.73511,-10.09655 0.0865,-0.25022 -0.45406,-1.6735 -1.25613,-3.30729 -2.60816,-5.3127 -3.58427,-9.47034 -3.5842,-15.26653 8e-5,-5.85654 0.87486,-9.62193 3.45082,-14.85359 1.88181,-3.82187 3.531,-6.09492 6.71881,-9.26041 4.84265,-4.8087497 10.30103,-7.7054497 17.48699,-9.28013972 3.15192,-0.69069 10.00811,-0.64665 13.35376,0.0858 7.19776,1.57572002 12.26745,4.32722002 17.36469,9.42445972 5.09723,5.09724 7.84874,10.16692 9.42446,17.36469 0.73242,3.34565 0.77646,10.20184 0.0858,13.35375 -1.57468,7.18596 -4.47138,12.64434 -9.28013,17.48699 -3.1655,3.18781 -5.43855,4.837 -9.26042,6.71881 -5.23166,2.57597 -8.99704,3.45075 -14.85358,3.45082 -5.72599,7e-5 -10.04644,-0.99807 -15.00214,-3.4659 -1.432,-0.71311 -2.91669,-1.29656 -3.29931,-1.29656 -0.5612,0 -2.56391,1.85954 -10.36094,9.62025 -8.2064,8.16816 -9.89579,9.72726 -11.19244,10.32924 -1.87125,0.86876 -4.38932,1.12505 -5.81557,0.59191 z m 48.88232,-24.90041 c 10.84174,-1.55942 19.11218,-9.39798 21.35906,-20.24371 0.41482,-2.00232 0.49399,-3.16636 0.38713,-5.69207 -0.28671,-6.77669 -2.70101,-12.35263 -7.3702,-17.02182 -4.6692,-4.66919 -10.24514,-7.0834998 -17.02183,-7.3702098 -18.11952,-0.7666 -31.03627,17.4473898 -24.46861,34.5033398 3.04068,7.89652 10.20735,13.93494 18.44077,15.53764 3.79664,0.73904 5.20578,0.78564 8.67368,0.28683 z m -21.0614,-27.72699 c -1.91307,-1.27802 -2.1682,-2.96805 -0.84575,-5.60251 3.92763,-7.82424 12.40796,-12.73573 21.1134,-12.22809 4.38522,0.25571 8.16235,1.56284 9.13751,3.16217 1.35979,2.23015 -0.31481,5.2111 -2.92898,5.21386 -0.51436,5.5e-4 -1.64546,-0.26186 -2.51354,-0.58312 -2.32744,-0.86135 -7.19825,-0.85877 -9.69851,0.005 -3.72779,1.28804 -6.62933,3.7893 -8.69731,7.49748 -1.71812,3.08084 -3.52093,3.90182 -5.56682,2.53508 z"
       id="path1" /></g></svg>
